<svg width="597" height="528" viewBox="0 0 597 528" fill="none" xmlns="http://www.w3.org/2000/svg">
<path d="M483.262 147.309C523.732 147.309 556.539 114.502 556.539 74.0319C556.539 33.562 523.732 0.754639 483.262 0.754639C442.792 0.754639 409.984 33.562 409.984 74.0319C409.984 114.502 442.792 147.309 483.262 147.309Z" stroke="#D3D3D3" stroke-width="0.592379" stroke-miterlimit="10" stroke-dasharray="7.19 7.19"/>
<path d="M177.772 81.9698C163.614 88.1305 149.575 95.713 139.682 107.561C129.789 119.408 124.813 136.409 130.796 150.686C138.734 169.701 163.851 180.779 163.969 201.393C164.029 216.144 150.404 227.399 136.661 232.789C122.918 238.18 107.693 240.076 95.1943 247.954C76.2974 259.802 67.4709 282.727 63.8574 304.704C60.1254 327.511 61.6064 353.516 77.7783 370.103C97.8007 390.54 130.974 388.23 159.408 383.846C197.32 377.981 235.055 371.11 272.849 364.238C355.604 349.133 438.359 334.086 521.055 318.981C529.941 317.381 539.182 315.604 546.35 310.154C560.686 299.373 561.87 277.159 553.577 261.342C545.284 245.466 529.882 234.685 514.598 225.385C499.315 216.084 483.143 207.258 471.71 193.455C460.277 179.712 454.591 159.275 463.239 143.636C470.585 130.367 486.342 123.259 493.214 109.752C502.277 91.9217 491.851 69.1744 475.383 57.8007C458.915 46.427 252.471 49.2705 177.772 81.9698Z" fill="#F7F7F7"/>
<path d="M313.546 347.355H169.895V458.96H313.546V347.355Z" fill="#3C738A"/>
<path d="M104.318 459.019H379.123C392.51 459.019 403.351 469.859 403.351 483.247H80.0898C80.0898 469.859 90.9304 459.019 104.318 459.019Z" fill="#3C829F" fill-opacity="0.34"/>
<path d="M431.903 393.916H51.537C45.0801 393.916 39.8672 388.703 39.8672 382.247V160.164C39.8672 153.707 45.0801 148.494 51.537 148.494H431.903C438.36 148.494 443.573 153.707 443.573 160.164V382.187C443.573 388.644 438.36 393.916 431.903 393.916Z" fill="#3C829F" fill-opacity="0.34"/>
<path d="M424.499 379.64H58.9423C53.9663 379.64 49.8789 375.612 49.8789 370.577V166.325C49.8789 161.349 53.9071 157.261 58.9423 157.261H424.559C429.534 157.261 433.622 161.289 433.622 166.325V370.577C433.563 375.612 429.534 379.64 424.499 379.64Z" fill="white"/>
<path d="M7.10855 480.344H578.28C582.19 480.344 585.389 483.543 585.389 487.453V520.389C585.389 524.299 582.19 527.498 578.28 527.498H7.10855C3.19885 527.498 0 524.299 0 520.389V487.453C0 483.543 3.19885 480.344 7.10855 480.344Z" fill="#E1EAEE"/>
<path d="M521.945 471.696C518.273 476.612 511.283 491.007 500.383 491.837C509.92 493.436 522.952 491.422 525.026 486.387C526.388 490.415 525.559 491.54 525.559 491.54L532.549 490.889L532.371 471.399L521.945 471.696Z" fill="#072938"/>
<path d="M470.408 471.399C466.38 476.02 458.857 490.652 447.957 490.652C457.317 492.962 470.467 491.955 472.896 487.098C473.962 491.244 473.015 492.251 473.015 492.251L480.005 492.133L481.308 472.703L470.408 471.399Z" fill="#072938"/>
<path d="M497.005 308.021C497.005 308.021 460.041 462.218 454.117 468.971C462.47 471.044 495.761 477.856 495.465 473.058C495.465 473.058 501.271 443.913 497.302 394.923C501.508 363.705 530.949 337.048 511.4 307.429C506.839 304.704 497.005 308.021 497.005 308.021Z" fill="#072C3D"/>
<path d="M497.006 308.021L500.027 320.935C500.027 320.935 505.655 470.748 501.745 478.863C510.334 478.626 544.218 476.316 542.678 471.755C542.678 471.755 540.427 442.136 523.604 395.99C519.339 364.771 543.389 330.769 516.614 307.488C498.487 301.15 497.006 308.021 497.006 308.021Z" fill="#0A3851"/>
<path d="M498.546 261.816C487.232 268.036 474.377 321.468 463.299 272.005C459.39 272.242 457.316 272.182 457.316 272.182C457.316 272.182 459.864 327.629 500.915 281.187C505.536 255.892 498.546 261.816 498.546 261.816Z" fill="#3C738A"/>
<path d="M501.923 260.572L498.546 261.757C498.546 261.757 488.594 280.12 487.646 282.964C488.831 287.407 496.651 299.55 497.065 308.081C502.456 309.858 510.986 310.272 516.673 307.547C517.265 305.83 520.879 282.668 522.893 269.931C523.545 265.607 520.287 261.638 515.903 261.52L511.875 261.401L501.923 260.572Z" fill="#3C738A"/>
<path d="M495.05 243.334C491.496 240.372 488.475 232.019 493.273 229.59C497.538 227.458 512.644 224.378 515.902 235.573C516.731 238.358 516.494 241.32 515.487 244.044C512.762 251.568 506.957 256.484 506.957 256.484L495.05 243.334Z" fill="#0B4870"/>
<path d="M503.936 252.575C503.817 253.759 503.403 259.506 501.922 260.572C503.817 264.126 504.351 267.562 504.351 267.562C504.351 267.562 510.215 262.171 511.755 261.342C510.867 258.084 507.786 250.027 507.786 250.027L503.936 252.575Z" fill="#FCD2B1"/>
<path d="M494.754 234.626C493.866 239.72 493.155 249.909 496.176 254.648C497.42 256.603 499.671 257.669 501.981 257.491C509.208 256.899 509.978 252.101 510.985 247.421C512.111 242.327 511.104 223.963 494.754 234.626Z" fill="#FFE3CA"/>
<path d="M492.324 233.974C495.049 238.654 499.314 241.794 503.757 242.327C505.653 242.564 507.608 242.386 509.562 242.801C511.458 243.215 513.413 244.4 514.361 246.592C514.361 246.651 508.615 219.52 492.324 233.974Z" fill="#0B4870"/>
<path d="M513.576 248.01C514.006 246.398 513.534 244.872 512.523 244.603C511.511 244.333 510.343 245.421 509.913 247.033C509.483 248.645 509.955 250.171 510.966 250.441C511.978 250.71 513.146 249.622 513.576 248.01Z" fill="#FFE3CA"/>
<path d="M507.312 231.012C509.326 228.169 511.4 225.266 514.184 223.252C517.027 221.238 520.759 220.172 524.017 221.356C526.032 222.127 527.69 223.667 529.586 224.733C534.206 227.221 539.893 226.451 544.81 224.674C549.727 222.897 554.347 220.231 559.382 218.928C564.418 217.624 570.401 218.039 574.133 221.712C579.405 226.925 577.272 236.699 571.289 241.023C565.247 245.348 556.954 245.111 549.964 242.564C541.907 239.661 533.91 233.974 525.617 235.929C523.07 236.521 520.759 237.825 518.39 238.891C516.02 239.957 513.414 240.786 510.807 240.431C508.201 240.076 505.654 238.239 505.298 235.633C504.943 233.026 507.549 230.242 510.037 231.071" fill="#0B4870"/>
<path d="M509.504 253.641C509.504 255.774 510.333 257.491 511.281 257.491C512.288 257.491 513.058 255.774 513.058 253.641C513.058 251.508 511.281 249.791 511.281 249.791C511.281 249.791 509.504 251.508 509.504 253.641Z" fill="#FFBE55"/>
<path d="M596.94 366.726C596.821 368.089 595.992 369.214 594.689 369.688C593.445 370.162 592.023 369.807 591.075 368.859L576.562 354.345C575.555 353.338 574.074 353.042 572.771 353.635L559.324 359.381C558.85 359.618 558.435 359.855 558.139 360.21C557.902 360.506 557.724 360.802 557.547 361.158L551.682 374.783C551.09 376.086 551.386 377.567 552.393 378.574L566.965 393.087C567.913 394.035 568.209 395.457 567.735 396.701C567.262 397.945 566.136 398.833 564.774 398.892C553.815 399.544 543.27 394.864 536.339 386.393C529.409 377.922 526.98 366.608 529.823 356.004C530.416 353.635 529.764 351.147 528.105 349.369L494.873 316.137L473.725 294.989L440.552 261.816C438.775 260.098 436.287 259.446 433.917 260.098C423.313 262.941 411.999 260.513 403.528 253.582C395.057 246.651 390.377 236.107 391.029 225.148C391.147 223.785 391.977 222.66 393.221 222.186C394.465 221.712 395.886 222.008 396.834 222.956L411.347 237.528C412.354 238.535 413.835 238.832 415.139 238.239L428.763 232.375C429.119 232.197 429.415 232.019 429.711 231.782C430.067 231.427 430.363 231.012 430.541 230.598L436.287 217.151C436.879 215.847 436.583 214.366 435.576 213.359L421.062 198.846C420.115 197.898 419.818 196.477 420.233 195.233C420.648 193.989 421.833 193.1 423.195 192.981C434.154 192.33 444.758 197.01 451.629 205.481C458.501 213.952 460.989 225.325 458.086 235.87C457.494 238.239 458.145 240.727 459.804 242.504L498.546 281.246L547.358 330.058C549.135 331.776 551.623 332.427 553.992 331.776C564.596 328.932 575.91 331.361 584.381 338.233C592.912 345.223 597.591 355.826 596.94 366.726Z" fill="#4E8FAA"/>
<path d="M564.774 398.892C553.815 399.544 543.27 394.864 536.339 386.393C529.409 377.922 526.98 366.608 529.823 356.004C530.416 353.635 529.764 351.147 528.105 349.369L494.873 316.137L473.725 294.989L440.552 261.816C438.775 260.098 436.287 259.446 433.917 260.098C423.313 262.941 411.999 260.513 403.528 253.582C395.057 246.651 390.377 236.107 391.029 225.148C391.147 223.785 391.977 222.66 393.221 222.186C394.465 221.712 395.886 222.008 396.834 222.956L411.347 237.528C412.354 238.535 413.835 238.832 415.139 238.239L428.763 232.375C429.119 232.197 429.415 232.019 429.711 231.782L558.08 360.21C557.843 360.506 557.665 360.802 557.487 361.158L551.623 374.782C551.03 376.086 551.327 377.567 552.334 378.574L566.906 393.087C567.854 394.035 568.15 395.456 567.676 396.7C567.262 397.944 566.136 398.774 564.774 398.892Z" fill="#2A5E74" fill-opacity="0.56"/>
<path d="M457.316 274.197C457.316 274.197 454.768 278.699 455.124 279.587C455.479 280.476 459.093 283.497 459.093 283.497L461.166 280.476L457.316 274.197Z" fill="#FCD2B1"/>
<path d="M518.391 315.071C518.391 315.071 515.133 315.011 514.896 314.597C514.659 314.182 512.348 310.983 509.742 310.746C510.216 311.457 511.223 314.004 511.993 314.241C509.15 314.241 503.285 315.011 502.396 315.545C503.048 317.559 505.832 320.521 508.439 321.291C512.112 321.113 515.192 319.04 515.192 319.04C515.192 319.04 518.628 319.099 518.509 318.921C518.391 318.743 518.391 315.071 518.391 315.071Z" fill="#FCD2B1"/>
<path d="M517.442 261.697C539.834 266.555 557.664 323.305 516.02 321.942C515.724 320.047 516.968 314.182 516.968 314.182C516.968 314.182 546.942 317.914 521.47 278.521C514.835 273.308 517.442 261.697 517.442 261.697Z" fill="#3C738A"/>
<path d="M292.044 277.573C291.215 276.744 290.267 276.329 289.141 276.329H274.687V257.373L285.824 246.237C286.653 245.407 287.068 244.459 287.068 243.334C287.068 242.208 286.653 241.261 285.824 240.431C284.995 239.602 284.047 239.187 282.921 239.187C281.796 239.187 280.848 239.602 280.019 240.431L268.882 251.568H214.502L203.365 240.491C202.536 239.661 201.588 239.247 200.462 239.247C199.337 239.247 198.389 239.661 197.56 240.491C196.73 241.32 196.316 242.268 196.316 243.393C196.316 244.519 196.73 245.466 197.56 246.296L208.696 257.433V276.389H194.242C193.117 276.389 192.169 276.803 191.34 277.633C190.51 278.462 190.096 279.41 190.096 280.535C190.096 281.661 190.51 282.609 191.34 283.438C192.169 284.267 193.117 284.682 194.242 284.682H208.696C208.696 291.554 209.94 297.418 212.428 302.335L199.396 316.967C198.685 317.855 198.33 318.803 198.389 319.988C198.448 321.113 198.922 322.061 199.692 322.831C200.522 323.542 201.41 323.838 202.476 323.838C203.661 323.838 204.727 323.364 205.557 322.476L217.345 309.147L218.293 310.036C218.885 310.569 219.833 311.28 221.077 312.109C222.321 312.938 223.743 313.768 225.342 314.597C226.882 315.426 228.778 316.137 230.97 316.73C233.162 317.322 235.294 317.618 237.486 317.618V259.861H245.72V317.618C247.793 317.618 249.867 317.322 251.999 316.789C254.132 316.256 255.85 315.604 257.271 314.893C258.693 314.182 260.115 313.412 261.477 312.524C262.84 311.635 263.728 311.043 264.202 310.687C264.617 310.332 264.972 310.036 265.15 309.858L277.886 322.535C278.656 323.364 279.604 323.779 280.789 323.779C281.974 323.779 282.921 323.364 283.692 322.535C284.521 321.706 284.936 320.758 284.936 319.632C284.936 318.507 284.521 317.559 283.692 316.73L270.422 303.283C273.325 298.188 274.747 291.968 274.747 284.564H289.141C290.267 284.564 291.215 284.149 292.044 283.319C292.873 282.49 293.288 281.542 293.288 280.417C293.288 279.351 292.873 278.403 292.044 277.573Z" fill="#3C738A"/>
<path d="M256.324 228.761C252.296 224.733 247.438 222.719 241.751 222.719C236.065 222.719 231.148 224.733 227.179 228.761C223.151 232.79 221.137 237.647 221.137 243.334H262.366C262.366 237.647 260.352 232.79 256.324 228.761Z" fill="#3C738A"/>
<path d="M60.8965 490.356C74.6397 490.356 80.3857 479.397 82.696 467.786C85.2432 454.695 83.4069 440.714 83.4069 440.714H38.4453C38.4453 440.714 38.3861 441.248 38.2676 442.195C37.379 450.429 34.6541 490.356 60.8965 490.356Z" fill="#4399BE" fill-opacity="0.33"/>
<path d="M38.3867 440.655C38.3867 441.662 48.4572 442.432 60.8379 442.432C73.2778 442.432 83.289 441.662 83.289 440.655C83.289 439.648 73.2186 438.878 60.8379 438.878C48.4572 438.878 38.3867 439.707 38.3867 440.655Z" fill="#58A3C3" fill-opacity="0.75"/>
<path d="M0 316.078C0 316.078 23.6952 352.154 37.9122 374.131C52.1293 396.108 55.8613 400.729 57.5792 407.837C59.2971 414.946 60.7781 441.188 60.7781 441.188H61.8443C61.8443 441.188 61.4889 418.915 60.1857 411.392C58.9417 404.165 60.2449 401.558 61.3112 393.916C62.3182 386.275 63.6807 374.131 55.9798 365.66C48.2789 357.189 50.293 348.896 47.6273 343.327C44.9023 337.759 23.9321 330.947 21.2072 325.201C18.4822 319.454 6.5754 315.9 0 316.078Z" fill="#3C738A"/>
<path d="M0 316.078C0 316.078 7.46397 324.549 12.5584 327.452C17.6529 330.354 20.0224 327.807 23.9321 334.738C27.8418 341.669 27.9603 344.749 31.5145 348.303C35.0688 351.858 39.334 352.035 39.6301 359.796C39.9856 367.556 37.9122 374.19 37.9122 374.19C37.9122 374.19 1.54018 317.914 0 316.078Z" fill="#4A8EAB"/>
<path d="M58.9425 441.188H57.8762C57.8762 441.188 57.58 433.961 54.6773 430.466C52.841 428.215 44.9623 425.668 37.2022 422.588C32.937 420.87 28.6719 419.033 25.4731 417.019C16.4689 411.273 7.87943 392.85 7.10933 389.533C6.87238 388.407 6.75391 387.696 6.75391 387.223C6.75391 386.334 7.22781 386.216 7.9979 385.327C8.35333 384.912 9.47885 385.031 10.7821 385.445C14.6918 386.63 17.9499 389.296 19.964 392.791C21.8596 396.049 24.8807 400.136 28.5534 401.084C34.8919 402.802 34.418 403.868 36.7283 410.325C39.0978 416.782 44.9623 417.849 52.4263 425.49C59.8903 433.132 58.9425 441.188 58.9425 441.188Z" fill="#3C738A"/>
<path d="M37.2022 422.588C32.937 420.87 28.6719 419.033 25.4731 417.019C16.4689 411.273 7.87943 392.85 7.10933 389.533C6.87238 388.407 6.75391 387.697 6.75391 387.223C6.75391 387.46 7.22781 390.362 11.9076 392.317C16.7651 394.331 17.7129 394.331 18.3645 397.412C19.0161 400.492 19.5493 403.75 22.0965 404.402C24.6437 405.053 26.2432 402.151 28.2573 406.83C30.2713 411.51 31.2192 413.11 33.1148 413.702C34.9511 414.354 36.3728 413.406 36.7875 417.019C37.0245 419.211 37.1429 421.284 37.2022 422.588Z" fill="#4A8EAB"/>
<path d="M66.7013 441.188H67.9453C67.9453 441.188 70.4333 396.523 73.8098 392.376C76.0016 389.711 83.2286 384.912 92.4105 381.24C97.4457 379.225 102.481 377.034 106.272 374.664C116.935 367.852 127.124 345.993 128.012 342.143C128.309 340.78 128.486 339.951 128.427 339.418C128.427 338.351 127.894 338.233 127.005 337.167C126.591 336.633 125.288 336.811 123.688 337.344C119.068 338.766 115.217 341.906 112.788 346.052C110.537 349.903 106.983 354.701 102.659 355.886C95.1355 357.9 95.7278 359.144 92.9437 366.845C90.1595 374.486 83.1694 375.79 74.343 384.794C65.5758 393.739 66.7013 441.188 66.7013 441.188Z" fill="#3C738A"/>
<path d="M92.4121 381.299C97.4473 379.285 102.483 377.093 106.274 374.723C116.937 367.911 127.126 346.052 128.014 342.202C128.31 340.839 128.488 340.01 128.429 339.477C128.37 339.714 127.896 343.209 122.327 345.519C116.581 347.889 115.396 347.889 114.686 351.561C113.915 355.175 113.323 359.085 110.302 359.855C107.281 360.625 105.385 357.189 103.016 362.757C100.646 368.266 99.4614 370.162 97.2696 370.932C95.0778 371.702 93.4192 370.577 92.9453 374.842C92.6491 377.271 92.4713 379.759 92.4121 381.299Z" fill="#4A8EAB"/>
<path d="M60.8965 490.356C74.6397 490.356 80.3857 479.397 82.696 467.786C69.249 462.692 52.307 454.517 38.2676 442.195C37.379 450.429 34.6541 490.356 60.8965 490.356Z" fill="#3C829F" fill-opacity="0.34"/>
</svg>
