<svg width="813" height="440" viewBox="0 0 813 440" fill="none" xmlns="http://www.w3.org/2000/svg">
<path opacity="0.07" d="M85.8281 406.444C85.8281 226.331 231.839 80.3204 411.952 80.3204C592.065 80.3204 738.076 226.331 738.076 406.444" fill="#439FC5"/>
<g opacity="0.2">
<path d="M93.0938 408.065C93.0938 408.065 168.684 227.8 195.776 244.471C222.868 261.143 286.864 408.065 286.864 408.065H93.0938Z" fill="#4589A5"/>
</g>
<g opacity="0.2">
<path d="M744.348 408.065C744.348 408.065 675.246 235.493 650.479 251.454C625.713 267.414 567.209 408.065 567.209 408.065H744.348Z" fill="#4589A5"/>
</g>
<path d="M426.538 411.19H378.606C376.879 411.19 375.48 409.789 375.48 408.064C375.48 406.338 376.879 404.938 378.606 404.938H426.538C428.264 404.938 429.664 406.338 429.664 408.064C429.664 409.79 428.264 411.19 426.538 411.19Z" fill="#5E349D"/>
<path d="M399.578 164.042C399.578 165.211 398.63 166.159 397.462 166.159C396.293 166.159 395.346 165.211 395.346 164.042C395.346 162.874 396.293 161.926 397.462 161.926C398.63 161.926 399.578 162.874 399.578 164.042Z" fill="#9BB3BD"/>
<g opacity="0.4">
<path d="M741.582 76.8102H525.245C517.795 76.8102 511.699 70.7146 511.699 63.2641C511.699 55.8135 517.795 49.718 525.245 49.718H741.583C749.033 49.718 755.129 55.8135 755.129 63.2641C755.128 70.7146 749.032 76.8102 741.582 76.8102Z" fill="#9BB3BD"/>
</g>
<g opacity="0.4">
<path d="M262.131 40.6374H131.23C123.779 40.6374 117.684 34.5419 117.684 27.0913C117.684 19.6407 123.779 13.5452 131.23 13.5452H262.13C269.581 13.5452 275.676 19.6407 275.676 27.0913C275.676 34.5419 269.581 40.6374 262.131 40.6374Z" fill="#9BB3BD"/>
</g>
<g opacity="0.4">
<path d="M683.644 27.0923H552.743C545.293 27.0923 539.197 20.9967 539.197 13.5462C539.197 6.09563 545.293 4.57764e-05 552.743 4.57764e-05H683.644C691.094 4.57764e-05 697.19 6.09563 697.19 13.5462C697.19 20.9958 691.094 27.0923 683.644 27.0923Z" fill="#9BB3BD"/>
</g>
<g opacity="0.4">
<path d="M144.447 90.3564H13.5461C6.09556 90.3564 0 84.2608 0 76.8102C0 69.3597 6.09556 63.2641 13.5461 63.2641H144.447C151.897 63.2641 157.993 69.3597 157.993 76.8102C157.993 84.2608 151.897 90.3564 144.447 90.3564Z" fill="#9BB3BD"/>
</g>
<g opacity="0.4">
<path d="M706.445 188.923H575.544C568.094 188.923 561.998 182.828 561.998 175.377C561.998 167.927 568.094 161.831 575.544 161.831H706.445C713.895 161.831 719.991 167.927 719.991 175.377C719.992 182.828 713.895 188.923 706.445 188.923Z" fill="#9BB3BD"/>
</g>
<g opacity="0.4">
<path d="M247.892 202.469H81.3294C74.7381 202.469 69.3457 197.077 69.3457 190.486V187.362C69.3457 180.771 74.7381 175.377 81.3294 175.377H247.892C254.483 175.377 259.876 180.771 259.876 187.362V190.486C259.876 197.076 254.483 202.469 247.892 202.469Z" fill="#9BB3BD"/>
</g>
<path d="M813 420.714C813 430.952 804.699 439.252 794.461 439.252H50.8396C40.6011 439.252 32.3008 430.952 32.3008 420.714C32.3008 410.475 40.6011 402.175 50.8396 402.175H794.462C804.7 402.175 813 410.475 813 420.714Z" fill="#9BB3BD"/>
<path opacity="0.4" d="M130.205 325.906C130.205 325.906 115.434 378.148 151.662 379.929C187.89 381.709 182.253 345.384 175.959 331.143C169.664 316.903 217.418 266.737 165.46 239.66C113.502 212.585 95.4025 313.407 130.205 325.906Z" fill="#4589A5"/>
<path opacity="0.4" d="M67.9098 346.312C67.9098 346.312 57.303 376.584 78.6022 378.949C99.9015 381.314 97.8966 359.688 94.7013 351.061C91.5061 342.434 121.489 314.585 91.8305 296.731C62.172 278.877 47.8399 337.676 67.9098 346.312Z" fill="#4589A5"/>
<path d="M80.3203 318.526L80.6695 404.938" stroke="#4D4D4D" stroke-width="0.951539" stroke-miterlimit="10"/>
<path d="M89.8242 339.058L80.4487 350.631L70.5137 340.292" stroke="#4D4D4D" stroke-width="0.951539" stroke-miterlimit="10"/>
<path d="M148.859 271.24L150.212 402.175" stroke="#4D4D4D" stroke-width="0.951539" stroke-miterlimit="10"/>
<path d="M165.264 288.07L149.185 302.898L134.621 289.289" stroke="#4D4D4D" stroke-width="0.951539" stroke-miterlimit="10"/>
<path d="M165.177 315.596L149.097 330.425L134.533 316.815" stroke="#4D4D4D" stroke-width="0.951539" stroke-miterlimit="10"/>
<path opacity="0.4" d="M727.396 325.906C727.396 325.906 712.626 378.148 748.854 379.929C785.082 381.709 779.445 345.384 773.15 331.143C766.856 316.903 814.61 266.737 762.651 239.66C710.693 212.585 692.594 313.407 727.396 325.906Z" fill="#4589A5"/>
<path opacity="0.4" d="M665.103 346.312C665.103 346.312 654.496 376.584 675.796 378.949C697.095 381.314 695.09 359.688 691.895 351.061C688.699 342.434 718.682 314.585 689.024 296.731C659.365 278.877 645.033 337.676 665.103 346.312Z" fill="#4589A5"/>
<path d="M677.51 318.526L677.86 404.938" stroke="#4D4D4D" stroke-width="0.951539" stroke-miterlimit="10"/>
<path d="M687.017 339.058L677.642 350.631L667.707 340.292" stroke="#4D4D4D" stroke-width="0.951539" stroke-miterlimit="10"/>
<path d="M746.051 271.24L747.405 402.175" stroke="#4D4D4D" stroke-width="0.951539" stroke-miterlimit="10"/>
<path d="M762.457 288.07L746.378 302.898L731.814 289.289" stroke="#4D4D4D" stroke-width="0.951539" stroke-miterlimit="10"/>
<path d="M762.369 315.596L746.29 330.425L731.727 316.815" stroke="#4D4D4D" stroke-width="0.951539" stroke-miterlimit="10"/>
<path d="M438.406 283.09L428.589 214.109L402.104 210.474L388.328 282.591L438.406 283.09Z" fill="#FAB9AF"/>
<path d="M417.934 389.975L417.963 397.75C417.969 399.331 417.754 400.906 417.324 402.429L416.649 404.824C416.094 406.79 417.572 408.741 419.615 408.734C424.91 408.715 433.961 408.729 436.294 408.733C436.676 408.734 437.05 408.476 437.083 408.095C437.28 405.825 430.723 404.305 425.785 402.393C422.023 400.938 422.224 394.176 422.687 390.228C422.862 388.736 421.619 387.467 420.122 387.591C418.882 387.694 417.931 388.732 417.934 389.975Z" fill="#0E538C"/>
<path d="M381.537 387.794L378.858 396.689C378.74 397.082 378.563 397.455 378.334 397.796L376.434 400.616C375.229 402.407 376.097 404.852 378.161 405.482C378.161 405.482 381.99 406.83 385.938 408.127C389.98 409.454 395.062 408.344 395.062 407.279C395.062 404.909 392.853 406.79 389.154 404.316C387.914 403.487 386.634 402.619 385.493 401.724C382.309 399.224 385.09 392.896 387.038 389.332C387.74 388.05 386.996 386.459 385.566 386.155L384.643 385.958C383.288 385.668 381.937 386.468 381.537 387.794Z" fill="#0E538C"/>
<path d="M408.902 283.757L438.251 281.293C438.251 281.293 441.206 302.653 433.789 341.321C430.31 359.453 423.061 394.104 423.061 394.104C421.265 394.89 419.438 395.088 417.578 394.623C417.578 394.623 417.027 379.339 416.691 362.879C416.368 347.093 416.281 330.225 415.275 324.706C413.219 313.433 408.902 283.757 408.902 283.757Z" fill="#3C738A"/>
<path opacity="0.07" d="M408.902 283.757L438.251 281.293C438.251 281.293 441.206 302.653 433.789 341.321C430.31 359.453 423.061 394.104 423.061 394.104C421.265 394.89 419.438 395.088 417.578 394.623C417.578 394.623 417.027 379.339 416.691 362.879C416.368 347.093 416.281 330.225 415.275 324.706C413.219 313.433 408.902 283.757 408.902 283.757Z" fill="black"/>
<path d="M414.961 284.129C417.991 300.391 424.76 324.707 411.721 347.552C398.682 370.395 384.989 394.145 384.989 394.145C383.224 394.217 381.624 393.577 380.137 392.448C380.137 392.448 382.423 382.092 385.728 369.999C389.508 356.166 394.298 339.894 392.933 331.41C390.376 315.51 387.439 294.334 388.329 284.05C389.219 273.767 413.367 275.578 414.961 284.129Z" fill="#3C738A"/>
<path opacity="0.07" d="M414.961 284.129C417.991 300.391 424.76 324.707 411.721 347.552C398.682 370.395 384.989 394.145 384.989 394.145C383.224 394.217 381.624 393.577 380.137 392.448C380.137 392.448 382.423 382.092 385.728 369.999C389.508 356.166 394.298 339.894 392.933 331.41C390.376 315.51 387.439 294.334 388.329 284.05C389.219 273.767 413.367 275.578 414.961 284.129Z" fill="black"/>
<path d="M439.418 281.333L428.588 214.11L402.103 210.475L387.869 281.459C387.601 282.793 388.465 284.088 389.802 284.342C394.733 285.276 406.627 287.229 419.939 287.229C429.875 287.229 435.46 285.296 438.001 284.073C439.029 283.576 439.6 282.461 439.418 281.333Z" fill="white"/>
<path d="M410.378 214.661C410.378 219.503 409.498 224.3 407.844 228.851C404.608 237.755 399.754 254.592 402.638 269.426C406.791 290.788 412.131 299.423 405.209 304.4C398.287 309.379 385.01 301.072 384.627 298.303C384.244 295.534 387.211 261.518 390.573 246.782C393.936 232.045 403.354 210.859 403.354 210.859L407.343 211.285C409.068 211.47 410.378 212.926 410.378 214.661Z" fill="#3C738A"/>
<path d="M421.404 213.123C421.404 213.123 425.997 223.05 424.396 237.313C422.794 251.576 419.082 295.008 432.061 301.566C436.17 303.643 445.556 294.445 445.556 291.034C445.556 287.622 442.424 276.201 439.456 265.816C436.488 255.432 429.334 214.211 429.334 214.211L421.404 213.123Z" fill="#3C738A"/>
<path d="M417.705 182.356C411.794 182.356 409.588 186.564 409.476 194.347C409.434 197.262 410.745 200.151 411.8 201.995C412.584 203.365 412.799 204.987 412.352 206.501L411.054 210.895C410.172 214.97 412.108 217.205 414.964 218.017C416.379 218.418 418.076 218.107 419.311 217.309C420.78 216.359 420.901 214.317 420.628 212.588L420.293 211.336C419.841 209.649 420.819 207.83 422.526 207.457C427.077 206.461 427.729 201.717 428.949 194.348C430.219 186.667 423.615 182.356 417.705 182.356Z" fill="#FAB9AF"/>
<path d="M417.487 178.029C413.388 178.029 406.617 180.344 407.472 186.26L408.228 190.444C408.529 192.115 409.923 193.366 411.615 193.511C411.772 194.089 412.297 194.491 412.896 194.491C413.629 194.491 414.223 193.897 414.223 193.164C414.223 191.277 415.547 189.667 417.388 189.254C419.646 188.746 422.058 188.626 424.583 189.304C429.213 190.548 434.709 182.881 434.717 182.804C434.717 182.804 432.372 184.599 427.734 182.895C423.098 181.192 425.031 177.8 417.487 178.029Z" fill="#0E538C"/>
<path d="M412.735 194.491C412.735 196.296 412.063 197.758 410.325 197.758C408.588 197.758 407.473 195.277 407.473 193.472C407.473 191.667 408.588 191.223 410.325 191.223C412.063 191.223 412.735 192.686 412.735 194.491Z" fill="#FAB9AF"/>
<path d="M403.78 191.734C403.78 191.734 403.152 193.215 401.657 195.298C400.912 196.343 399.944 197.534 398.756 198.809C397.585 200.102 396.261 201.549 394.796 203.098C393.342 204.656 391.738 206.309 390.125 208.121C388.496 209.914 386.894 211.903 385.398 214.031C383.938 216.176 382.521 218.438 381.458 220.75C380.94 221.902 380.491 223.067 380.232 224.148C379.962 225.223 379.886 226.234 380.023 226.847C380.092 227.15 380.193 227.347 380.284 227.461C380.39 227.564 380.493 227.606 380.62 227.692C380.88 227.844 381.446 228.155 382.373 228.337L382.892 228.467C382.971 228.484 383.083 228.519 383.135 228.522L383.285 228.528L383.884 228.574L384.583 228.604L385.252 228.56C386.123 228.439 386.882 228.18 387.535 227.813C388.835 227.071 389.784 226.142 390.948 225.206C392.085 224.242 393.342 223.137 394.49 221.885C396.785 219.376 398.752 216.547 400.223 214.416C400.984 213.296 401.582 212.417 401.991 211.817C402.425 211.188 402.689 210.838 402.689 210.838L404.02 210.881C404.02 210.881 404.248 211.252 404.611 211.976C404.945 212.699 405.419 213.782 405.787 215.217C406.519 218.062 406.984 222.437 405.213 227.622C404.312 230.182 402.848 232.986 400.337 235.408C399.075 236.603 397.556 237.682 395.81 238.493C394.072 239.312 392.11 239.831 390.116 240.039C386.109 240.44 382.072 239.541 378.862 238.034C378.015 237.655 377.029 237.179 376.108 236.578C375.171 235.937 374.225 235.205 373.396 234.189C372.567 233.2 371.896 232.001 371.481 230.756C371.082 229.508 370.941 228.267 370.956 227.127C371.012 224.84 371.615 222.99 372.291 221.354C372.979 219.714 373.808 218.297 374.667 216.963C376.388 214.308 378.249 212.007 380.129 209.888C381.987 207.757 383.83 205.793 385.56 203.927C387.308 202.079 388.985 200.369 390.608 198.874C392.224 197.37 393.777 196.076 395.186 194.97C396.578 193.846 397.891 192.98 399.039 192.347C401.328 191.074 402.928 190.71 402.928 190.71L403.78 191.734Z" fill="#3C738A"/>
<path d="M449.774 287.282C449.774 287.282 448.885 286.11 448.154 283.983C447.766 282.922 447.507 281.612 447.192 280.112C446.9 278.61 446.601 276.913 446.347 275.054C446.077 273.197 445.816 271.182 445.43 269.069C445.041 266.956 444.515 264.748 443.979 262.475C443.426 260.206 442.793 257.878 442.107 255.562C441.782 254.392 441.382 253.263 441.037 252.11C440.652 250.985 440.298 249.914 439.844 248.701C439.422 247.554 438.967 246.404 438.516 245.275C438.027 244.159 437.541 243.056 437.015 241.993C435.978 239.858 434.884 237.853 433.978 235.909C433.053 233.968 432.27 232.097 431.524 230.306C430.754 228.533 430.017 226.851 429.274 225.293C428.528 223.74 427.819 222.279 427.129 220.977C426.44 219.677 425.823 218.487 425.274 217.509C424.723 216.491 424.29 215.693 423.994 215.148C423.69 214.588 423.537 214.264 423.537 214.264L424.196 213.33C424.196 213.33 424.551 213.376 425.199 213.511C425.532 213.567 425.921 213.67 426.377 213.803C426.836 213.932 427.373 214.077 427.941 214.297C429.096 214.71 430.465 215.313 431.945 216.177C433.42 217.043 435.034 218.152 436.605 219.576C438.178 220.994 439.763 222.685 441.179 224.641C442.609 226.584 443.905 228.777 444.852 231.164C445.838 233.539 446.448 236.104 446.985 238.662C447.484 241.188 447.99 243.753 448.496 246.319C448.732 247.525 448.97 248.899 449.194 250.203C449.376 251.499 449.554 252.797 449.678 254.063C449.959 256.603 450.143 259.078 450.33 261.465C450.54 263.848 450.665 266.15 450.869 268.319C451.074 270.488 451.339 272.524 451.533 274.411C451.745 276.295 451.853 278.031 451.907 279.574C451.942 281.119 451.976 282.464 451.82 283.592C451.557 285.841 450.909 287.172 450.909 287.172L449.774 287.282Z" fill="#3C738A"/>
<path d="M411.026 191.047C409.438 191.855 407.933 192.84 407.271 193.095C406.995 193.202 406.17 193.262 405.932 193.296C405.234 193.396 404.137 193.44 403.597 193.895L401.296 195.769C400.199 196.693 398.921 196.863 397.997 195.767C396.996 194.579 397.556 193.185 398.851 192.329L400.439 190.991C401.476 190.305 402.104 189.218 402.778 188.174C404.148 186.048 406.732 184.679 408.906 183.774C410.27 183.206 412.086 184.023 414.443 185.243C415.601 185.842 417.217 187.117 415.61 187.459C414.264 187.745 410.576 186.134 408.347 189.423C408.238 189.585 407.987 190.02 408.135 190.207C408.578 190.767 409.874 189.846 410.686 189.61C411.825 189.277 412.651 189.576 412.862 190.006C413.089 190.461 412.16 190.47 411.026 191.047Z" fill="#FAB9AF"/>
<path d="M447.717 295.064C447.753 293.282 447.592 291.492 447.679 290.788C447.715 290.494 448.05 289.738 448.133 289.512C448.374 288.849 448.852 287.861 448.704 287.17L448.135 284.258C447.836 282.856 448.288 281.647 449.691 281.349C451.21 281.026 452.176 282.175 452.322 283.721L452.754 285.753C452.871 286.991 453.533 288.057 454.137 289.143C455.367 291.354 455.358 294.277 455.132 296.621C454.99 298.092 453.414 299.31 451.229 300.814C450.154 301.553 448.268 302.378 448.723 300.801C449.105 299.478 452.263 296.984 450.41 293.468C450.319 293.295 450.053 292.869 449.818 292.911C449.115 293.039 449.318 294.617 449.144 295.443C448.9 296.604 448.247 297.192 447.769 297.177C447.263 297.159 447.693 296.336 447.717 295.064Z" fill="#FAB9AF"/>
<path d="M412.016 202.412C412.016 202.412 416.431 208.481 421.924 207.659C421.924 207.659 420.783 208.204 420.506 209.091C420.506 209.091 415.288 208.706 412.016 202.412Z" fill="#E8948B"/>
<path d="M416.773 155.356C416.929 154.722 417.353 154.465 417.986 154.62L422.568 155.746C423.202 155.902 423.46 156.327 423.303 156.96L422.202 161.445C422.046 162.079 421.622 162.336 420.987 162.18L416.405 161.055C415.773 160.899 415.515 160.474 415.672 159.841L416.773 155.356ZM431.737 123.473C436.27 124.586 438.158 127.635 437.032 132.216L434.673 141.818C434.542 142.354 434.311 142.66 433.838 142.905L426.186 147.332C425.762 147.59 425.532 147.894 425.4 148.431L424.873 150.575C424.718 151.209 424.294 151.466 423.659 151.31L419.077 150.184C418.445 150.028 418.187 149.604 418.343 148.97L419.396 144.682C419.516 144.193 419.745 143.889 420.17 143.631L428.416 138.678L430.068 131.951C430.379 130.684 429.814 129.822 428.596 129.523L426.257 128.948C424.94 128.624 424.139 129.152 423.828 130.419L422.895 134.221C422.775 134.709 422.411 134.929 421.923 134.809L416.854 133.564C416.318 133.433 416.146 133.08 416.266 132.592L417.535 127.425C418.661 122.844 421.696 121.005 426.278 122.131L431.737 123.473Z" fill="#3C738A"/>
</svg>
